<svg xmlns="http://www.w3.org/2000/svg" viewBox="0 0 64 64" width="64" height="64">
  <defs>
    <linearGradient id="shieldGrad" x1="0%" y1="0%" x2="100%" y2="100%">
      <stop offset="0%" stop-color="#f59e0b" />
      <stop offset="50%" stop-color="#ea580c" />
      <stop offset="100%" stop-color="#c2410c" />
    </linearGradient>
    <filter id="shadow" x="-10%" y="-10%" width="120%" height="120%">
      <feDropShadow dx="0" dy="4" stdDeviation="4" flood-color="#ea580c" flood-opacity="0.35"/>
    </filter>
  </defs>
  <rect width="64" height="64" rx="18" fill="url(#shieldGrad)" filter="url(#shadow)" />
  <g transform="translate(14, 14)">
    <path d="M30 19.5c0 8.25-5.25 11.25-11.49 13.425a1.5 1.5 0 0 1-1.02 0C11.25 30.75 6 27 6 19.5V9a1.5 1.5 0 0 1 1.5-1.5c3 0 6.75-1.8 9.36-4.08a1.75 1.75 0 0 1 2.28 0c2.61 2.28 6.36 4.08 9.36 4.08a1.5 1.5 0 0 1 1.5 1.5z" 
          fill="none" stroke="#ffffff" stroke-width="3" stroke-linecap="round" stroke-linejoin="round"/>
  </g>
</svg>
